<?xml version="1.0" encoding="UTF-8" standalone="no"?>
<svg
   xmlns:dc="http://purl.org/dc/elements/1.1/"
   xmlns:cc="http://creativecommons.org/ns#"
   xmlns:rdf="http://www.w3.org/1999/02/22-rdf-syntax-ns#"
   xmlns:svg="http://www.w3.org/2000/svg"
   xmlns="http://www.w3.org/2000/svg"
   version="1.1"
   id="svg2"
   viewBox="0 0 380.81735 67.164994"
   height="18.955454mm"
   width="107.47512mm">
  <defs
     id="defs4" />
  <metadata
     id="metadata7">
    <rdf:RDF>
      <cc:Work
         rdf:about="">
        <dc:format>image/svg+xml</dc:format>
        <dc:type
           rdf:resource="http://purl.org/dc/dcmitype/StillImage" />
        <dc:title></dc:title>
      </cc:Work>
    </rdf:RDF>
  </metadata>
  <g
     transform="translate(-113.39164,-417.52701)"
     id="layer1">
    <flowRoot
       style="font-style:normal;font-weight:normal;font-size:40px;line-height:125%;font-family:sans-serif;letter-spacing:0px;word-spacing:0px;fill:#000000;fill-opacity:1;stroke:none;stroke-width:1px;stroke-linecap:butt;stroke-linejoin:miter;stroke-opacity:1"
       id="flowRoot3336"
       xml:space="preserve"><flowRegion
         id="flowRegion3338"><rect
           y="420.93362"
           x="100"
           height="91.428574"
           width="240"
           id="rect3340" /></flowRegion><flowPara
         id="flowPara3342"></flowPara></flowRoot>    <g
       id="text3344"
       style="font-style:normal;font-weight:normal;font-size:40px;line-height:125%;font-family:sans-serif;letter-spacing:0px;word-spacing:0px;fill:#ffffff;fill-opacity:1;stroke:none;stroke-width:1px;stroke-linecap:butt;stroke-linejoin:miter;stroke-opacity:1">
      <path
         id="path4163"
         style="font-style:normal;font-variant:normal;font-weight:300;font-stretch:condensed;font-family:'Open Sans';-inkscape-font-specification:'Open Sans Light Condensed';fill:#ffffff"
         d="m 141.06593,466.02917 -2.51953,-10.35156 -6.93359,0 -2.48047,10.35156 -1.99219,0 6.875,-28.55468 1.97266,0 7.03125,28.55468 -1.95313,0 z m -2.96875,-12.28515 -2.51953,-10.64453 q -0.39062,-1.79688 -0.60547,-3.39844 -0.17578,1.69922 -0.54687,3.39844 l -2.44141,10.64453 6.11328,0 z" />
      <path
         id="path4165"
         style="font-style:normal;font-variant:normal;font-weight:300;font-stretch:condensed;font-family:'Open Sans';-inkscape-font-specification:'Open Sans Light Condensed';fill:#ffffff"
         d="m 161.16359,466.02917 -2.44141,0 -10.80078,-25.60546 -0.15625,0 q 0.23438,2.65625 0.23438,5.11718 l 0,20.48828 -1.875,0 0,-28.55468 2.48047,0 10.72265,25.3125 0.11719,0 q -0.15625,-3.20313 -0.15625,-5.35157 l 0,-19.96093 1.875,0 0,28.55468 z" />
      <path
         id="path4167"
         style="font-style:normal;font-variant:normal;font-weight:300;font-stretch:condensed;font-family:'Open Sans';-inkscape-font-specification:'Open Sans Light Condensed';fill:#ffffff"
         d="m 167.45265,466.02917 0,-28.55468 1.91406,0 0,28.55468 -1.91406,0 z" />
      <path
         id="path4169"
         style="font-style:normal;font-variant:normal;font-weight:300;font-stretch:condensed;font-family:'Open Sans';-inkscape-font-specification:'Open Sans Light Condensed';fill:#ffffff"
         d="m 185.05031,466.02917 -7.59766,-25.99609 -0.15625,0 q 0.19531,4.10156 0.19531,5.19531 l 0,20.80078 -1.83593,0 0,-28.55468 2.83203,0 6.40625,21.83593 q 0.85937,2.89063 1.11328,4.92188 l 0.15625,0 q 0.19531,-1.44531 1.21094,-4.88281 l 6.34765,-21.875 2.92969,0 0,28.55468 -1.91406,0 0,-20.64453 q 0,-1.21093 0.19531,-5.3125 l -0.15625,0 -7.55859,25.95703 -2.16797,0 z" />
      <path
         id="path4171"
         style="font-style:normal;font-variant:normal;font-weight:300;font-stretch:condensed;font-family:'Open Sans';-inkscape-font-specification:'Open Sans Light Condensed';fill:#ffffff"
         d="m 213.27296,466.02917 -10.35156,0 0,-28.55468 10.35156,0 0,1.83593 -8.4375,0 0,10.83985 7.96875,0 0,1.83594 -7.96875,0 0,12.20703 8.4375,0 0,1.83593 z" />
      <path
         id="path4173"
         style="font-style:normal;font-variant:normal;font-weight:300;font-stretch:condensed;font-family:'Open Sans';-inkscape-font-specification:'Open Sans Light Condensed';fill:#ffffff"
         d="m 239.97218,451.47839 q 0,14.55078 -9.08203,14.55078 l -5.07812,0 0,-28.55468 5.19531,0 q 4.41406,0 6.67969,3.57422 2.28515,3.55468 2.28515,10.42968 z m -2.01172,0.11719 q 0,-6.03516 -1.77734,-9.19922 -1.77734,-3.16406 -5.25391,-3.16406 l -3.20312,0 0,25.03906 3.04687,0 q 3.71094,0 5.44922,-3.24219 1.73828,-3.24218 1.73828,-9.43359 z" />
      <path
         id="path4175"
         style="font-style:normal;font-variant:normal;font-weight:300;font-stretch:condensed;font-family:'Open Sans';-inkscape-font-specification:'Open Sans Light Condensed';fill:#ffffff"
         d="m 245.26515,466.02917 0,-28.55468 1.91406,0 0,28.55468 -1.91406,0 z" />
      <path
         id="path4177"
         style="font-style:normal;font-variant:normal;font-weight:300;font-stretch:condensed;font-family:'Open Sans';-inkscape-font-specification:'Open Sans Light Condensed';fill:#ffffff"
         d="m 264.42531,458.54871 q 0,3.51562 -1.95313,5.70312 -1.95312,2.16797 -4.96093,2.16797 -3.41797,0 -5.48829,-0.99609 l 0,-2.07032 q 1.01563,0.56641 2.51954,0.89844 1.5039,0.33203 2.96875,0.33203 2.1875,0 3.59375,-1.66015 1.40625,-1.66016 1.40625,-4.21875 0,-2.36329 -0.9961,-3.75 -0.99609,-1.38672 -3.80859,-2.77344 -2.20703,-1.11328 -3.30078,-2.14844 -1.09375,-1.05469 -1.6211,-2.44141 -0.52734,-1.38671 -0.52734,-3.32031 0,-2.10937 0.85937,-3.75 0.85938,-1.64062 2.40235,-2.53906 1.54297,-0.91797 3.3789,-0.91797 1.66016,0 3.00782,0.37109 1.36718,0.3711 2.14843,0.80079 l -0.74218,1.83593 q -2.16797,-1.11328 -4.41407,-1.11328 -2.10937,0 -3.4375,1.44531 -1.30859,1.42579 -1.30859,3.78907 0,2.40234 0.95703,3.73047 0.95703,1.32812 3.75,2.7539 2.89063,1.40625 4.21875,3.30078 1.34766,1.875 1.34766,4.57032 z" />
      <path
         id="path4179"
         style="font-style:normal;font-variant:normal;font-weight:300;font-stretch:condensed;font-family:'Open Sans';-inkscape-font-specification:'Open Sans Light Condensed';fill:#ffffff"
         d="m 277.31593,438.86121 q -3.22265,0 -5.13672,3.41796 -1.89453,3.39844 -1.89453,9.4336 0,3.92578 0.87891,6.83594 0.87891,2.91015 2.51953,4.47265 1.64063,1.5625 3.80859,1.5625 2.22657,0 3.82813,-0.80078 l 0,1.75781 q -1.52344,0.87891 -4.00391,0.87891 -2.71484,0 -4.76562,-1.75781 -2.03125,-1.75782 -3.14453,-5.07813 -1.11328,-3.33984 -1.11328,-7.91015 0,-6.83594 2.42187,-10.74219 2.44141,-3.90625 6.64063,-3.90625 2.61718,0 4.57031,1.21094 l -0.87891,1.67968 q -1.64062,-1.05468 -3.73047,-1.05468 z" />
      <path
         id="path4181"
         style="font-style:normal;font-variant:normal;font-weight:300;font-stretch:condensed;font-family:'Open Sans';-inkscape-font-specification:'Open Sans Light Condensed';fill:#ffffff"
         d="m 301.55421,451.71277 q 0,7.08984 -2.1289,10.89844 -2.10938,3.80859 -6.11328,3.80859 -4.04297,0 -6.13282,-3.82813 -2.08984,-3.84765 -2.08984,-10.91796 0,-7.38282 2.07031,-10.9961 2.07032,-3.61328 6.21094,-3.61328 3.98438,0 6.07422,3.80859 2.10937,3.78907 2.10937,10.83985 z m -14.47265,0 q 0,6.36719 1.58203,9.6289 1.60156,3.24219 4.64844,3.24219 3.0664,0 4.64843,-3.22265 1.60157,-3.22266 1.60157,-9.64844 0,-6.34766 -1.5625,-9.57031 -1.5625,-3.24219 -4.62891,-3.24219 -3.14453,0 -4.72656,3.28125 -1.5625,3.26172 -1.5625,9.53125 z" />
      <path
         id="path4183"
         style="font-style:normal;font-variant:normal;font-weight:300;font-stretch:condensed;font-family:'Open Sans';-inkscape-font-specification:'Open Sans Light Condensed';fill:#ffffff"
         d="m 317.33546,437.47449 1.97266,0 -6.75781,28.55468 -2.12891,0 -6.71875,-28.55468 1.99219,0 4.64844,20.07812 q 0.54687,2.30469 0.72265,3.39844 0.17578,1.07422 0.35157,2.71484 0.15625,-1.13281 0.33203,-2.22656 0.17578,-1.09375 0.33203,-1.83594 0.17578,-0.76172 5.2539,-22.1289 z" />
      <path
         id="path4185"
         style="font-style:normal;font-variant:normal;font-weight:300;font-stretch:condensed;font-family:'Open Sans';-inkscape-font-specification:'Open Sans Light Condensed';fill:#ffffff"
         d="m 332.80421,466.02917 -10.35156,0 0,-28.55468 10.35156,0 0,1.83593 -8.4375,0 0,10.83985 7.96875,0 0,1.83594 -7.96875,0 0,12.20703 8.4375,0 0,1.83593 z" />
      <path
         id="path4187"
         style="font-style:normal;font-variant:normal;font-weight:300;font-stretch:condensed;font-family:'Open Sans';-inkscape-font-specification:'Open Sans Light Condensed';fill:#ffffff"
         d="m 339.75734,453.54871 0,12.48046 -1.91406,0 0,-28.55468 3.90625,0 q 4.17968,0 6.11328,1.97265 1.93359,1.97266 1.93359,5.89844 0,2.96875 -1.05469,4.88281 -1.05468,1.91407 -3.53515,2.8711 l 5.66406,12.92968 -2.14844,0 -5.33203,-12.48046 -3.63281,0 z m 0,-1.75782 2.67578,0 q 2.59766,0 4.00391,-1.60156 1.40625,-1.60156 1.40625,-4.76562 0,-3.22266 -1.44532,-4.64844 -1.42578,-1.42578 -4.51171,-1.42578 l -2.12891,0 0,12.4414 z" />
      <path
         id="path4189"
         style="font-style:normal;font-variant:normal;font-weight:300;font-stretch:condensed;font-family:'Open Sans';-inkscape-font-specification:'Open Sans Light Condensed';fill:#ffffff"
         d="m 358.46828,452.22058 4.64843,-14.74609 2.03125,0 -5.76171,17.40234 0,11.15234 -1.91407,0 0,-11.15234 -5.72265,-17.40234 2.03125,0 4.6875,14.74609 z" />
      <path
         id="path4191"
         style="font-style:normal;font-variant:normal;font-weight:300;font-stretch:condensed;font-family:'Open Sans';-inkscape-font-specification:'Open Sans Light Condensed';fill:#ffffff"
         d="m 387.76515,445.67761 q 0,4.41406 -2.03125,6.48438 -2.01172,2.07031 -5.97656,2.07031 l -2.03125,0 0,11.79687 -1.91406,0 0,-28.55468 3.90625,0 q 4.17968,0 6.11328,1.97265 1.93359,1.97266 1.93359,6.23047 z m -10.03906,6.79688 1.91406,0 q 3.35938,0 4.76563,-1.58203 1.40625,-1.58204 1.40625,-5.21485 0,-3.45703 -1.46485,-4.9414 -1.44531,-1.50391 -4.49218,-1.50391 l -2.12891,0 0,13.24219 z" />
      <path
         id="path4193"
         style="font-style:normal;font-variant:normal;font-weight:300;font-stretch:condensed;font-family:'Open Sans';-inkscape-font-specification:'Open Sans Light Condensed';fill:#ffffff"
         d="m 394.13234,453.54871 0,12.48046 -1.91406,0 0,-28.55468 3.90625,0 q 4.17968,0 6.11328,1.97265 1.93359,1.97266 1.93359,5.89844 0,2.96875 -1.05469,4.88281 -1.05468,1.91407 -3.53515,2.8711 l 5.66406,12.92968 -2.14844,0 -5.33203,-12.48046 -3.63281,0 z m 0,-1.75782 2.67578,0 q 2.59766,0 4.00391,-1.60156 1.40625,-1.60156 1.40625,-4.76562 0,-3.22266 -1.44532,-4.64844 -1.42578,-1.42578 -4.51171,-1.42578 l -2.12891,0 0,12.4414 z" />
      <path
         id="path4195"
         style="font-style:normal;font-variant:normal;font-weight:300;font-stretch:condensed;font-family:'Open Sans';-inkscape-font-specification:'Open Sans Light Condensed';fill:#ffffff"
         d="m 424.75734,451.71277 q 0,7.08984 -2.12891,10.89844 -2.10937,3.80859 -6.11328,3.80859 -4.04297,0 -6.13281,-3.82813 -2.08984,-3.84765 -2.08984,-10.91796 0,-7.38282 2.07031,-10.9961 2.07031,-3.61328 6.21094,-3.61328 3.98437,0 6.07421,3.80859 2.10938,3.78907 2.10938,10.83985 z m -14.47266,0 q 0,6.36719 1.58203,9.6289 1.60157,3.24219 4.64844,3.24219 3.06641,0 4.64844,-3.22265 1.60156,-3.22266 1.60156,-9.64844 0,-6.34766 -1.5625,-9.57031 -1.5625,-3.24219 -4.6289,-3.24219 -3.14454,0 -4.72657,3.28125 -1.5625,3.26172 -1.5625,9.53125 z" />
      <path
         id="path4197"
         style="font-style:normal;font-variant:normal;font-weight:300;font-stretch:condensed;font-family:'Open Sans';-inkscape-font-specification:'Open Sans Light Condensed';fill:#ffffff"
         d="m 427.43312,473.23621 q -1.30859,0 -2.28516,-0.48829 l 0,-1.79687 q 0.95704,0.39062 2.2461,0.39062 1.23047,0 1.83594,-1.13281 0.60546,-1.11328 0.60546,-3.6914 l 0,-29.04297 1.91407,0 0,29.0039 q 0,3.35938 -1.09375,5.0586 -1.09375,1.69922 -3.22266,1.69922 z" />
      <path
         id="path4199"
         style="font-style:normal;font-variant:normal;font-weight:300;font-stretch:condensed;font-family:'Open Sans';-inkscape-font-specification:'Open Sans Light Condensed';fill:#ffffff"
         d="m 448.19484,466.02917 -10.35156,0 0,-28.55468 10.35156,0 0,1.83593 -8.4375,0 0,10.83985 7.96875,0 0,1.83594 -7.96875,0 0,12.20703 8.4375,0 0,1.83593 z" />
      <path
         id="path4201"
         style="font-style:normal;font-variant:normal;font-weight:300;font-stretch:condensed;font-family:'Open Sans';-inkscape-font-specification:'Open Sans Light Condensed';fill:#ffffff"
         d="m 461.30031,438.86121 q -3.22266,0 -5.13672,3.41796 -1.89453,3.39844 -1.89453,9.4336 0,3.92578 0.8789,6.83594 0.87891,2.91015 2.51954,4.47265 1.64062,1.5625 3.80859,1.5625 2.22656,0 3.82812,-0.80078 l 0,1.75781 q -1.52343,0.87891 -4.0039,0.87891 -2.71485,0 -4.76563,-1.75781 -2.03125,-1.75782 -3.14453,-5.07813 -1.11328,-3.33984 -1.11328,-7.91015 0,-6.83594 2.42188,-10.74219 2.4414,-3.90625 6.64062,-3.90625 2.61719,0 4.57031,1.21094 l -0.8789,1.67968 q -1.64063,-1.05468 -3.73047,-1.05468 z" />
      <path
         id="path4203"
         style="font-style:normal;font-variant:normal;font-weight:300;font-stretch:condensed;font-family:'Open Sans';-inkscape-font-specification:'Open Sans Light Condensed';fill:#ffffff"
         d="m 474.77687,466.02917 -1.91406,0 0,-26.71875 -5.6836,0 0,-1.83593 13.28125,0 0,1.83593 -5.68359,0 0,26.71875 z" />
    </g>
    <rect
       style="fill:none;stroke:#ffffff;stroke-width:2.17266154"
       y="418.61334"
       x="114.47797"
       height="64.992332"
       width="378.64468"
       id="rect3350" />
  </g>
</svg>
